<svg xmlns="http://www.w3.org/2000/svg" viewBox="0 0 100 100"><defs><linearGradient id="g" x1="15" y1="90" x2="85" y2="10" gradientUnits="userSpaceOnUse"><stop offset="0" stop-color="#24e7ff"/><stop offset=".5" stop-color="#716cff"/><stop offset="1" stop-color="#ff32e8"/></linearGradient><filter id="glow"><feGaussianBlur stdDeviation="3" result="b"/><feMerge><feMergeNode in="b"/><feMergeNode in="SourceGraphic"/></feMerge></filter></defs><path d="M50 94C29 94 17 79 19 61c1-12 9-25 19-36 0 9 5 15 10 20-2-14 7-28 19-39-2 16 10 24 14 37 6 21-7 51-31 51z" fill="url(#g)" stroke="#63f2ff" stroke-width="2" filter="url(#glow)"/><path d="M50 83c-9 0-15-7-14-16 0-6 4-12 9-17 0 6 4 10 8 13-1-8 3-14 9-20 0 9 6 13 8 20 3 11-4 20-20 20z" fill="#fff" opacity=".9" filter="url(#glow)"/></svg>
